<svg width="87" height="40" viewBox="0 0 87 40" fill="none" xmlns="http://www.w3.org/2000/svg">
<path d="M78.6032 31.8875C78.6032 36.2145 75.206 39.5037 70.7542 39.5009C66.3024 39.4981 62.9249 36.2005 62.9277 31.8623C62.9305 27.5242 66.3334 24.2377 70.7767 24.2461C75.22 24.2545 78.6088 27.5632 78.6032 31.8875ZM74.6323 31.8875C74.624 31.131 74.3905 30.3938 73.9613 29.7686C73.532 29.1433 72.9261 28.6578 72.2197 28.373C71.5132 28.0882 70.7376 28.0168 69.9904 28.1678C69.2432 28.3188 68.5576 28.6855 68.0197 29.2218C67.4819 29.758 67.1157 30.44 66.9673 31.182C66.8188 31.9241 66.8947 32.6931 67.1853 33.3925C67.476 34.0919 67.9684 34.6905 68.6009 35.1131C69.2333 35.5358 69.9776 35.7637 70.7401 35.7681C71.255 35.778 71.7665 35.6845 72.244 35.4933C72.7214 35.3021 73.155 35.017 73.5186 34.6553C73.8821 34.2936 74.1682 33.8627 74.3596 33.3884C74.551 32.9142 74.6438 32.4065 74.6323 31.8958V31.8875Z" fill="#6A6F73"/>
<path d="M33.8261 37.418C33.8261 36.9716 33.843 36.5252 33.8261 36.0872C33.8093 35.7803 33.8768 35.7134 34.1889 35.8082C35.4117 36.156 36.6843 36.2993 37.9545 36.2323C38.4404 36.2192 38.9186 36.1092 39.3606 35.9087C40.2605 35.4679 40.3393 34.5138 39.5322 33.9335C39.0805 33.6439 38.5835 33.4308 38.0614 33.303C37.1228 33.0452 36.2315 32.6412 35.4207 32.1061C33.0078 30.4127 33.3481 26.5265 35.8425 25.0953C36.9245 24.5033 38.1483 24.214 39.3831 24.2583C40.4922 24.2804 41.5963 24.4122 42.6791 24.6517C42.9041 24.6991 42.9828 24.7828 42.9772 25.0228C42.9603 25.8764 42.9631 26.7329 42.9772 27.5894C42.9772 27.8126 42.9322 27.8684 42.6959 27.807C41.6897 27.529 40.6464 27.4057 39.6025 27.4415C39.1299 27.4523 38.6669 27.5757 38.2526 27.8014C38.1044 27.8722 37.9773 27.9799 37.8837 28.114C37.79 28.2481 37.733 28.404 37.7183 28.5665C37.7036 28.729 37.7316 28.8925 37.7996 29.041C37.8676 29.1896 37.9733 29.3181 38.1064 29.4139C38.4534 29.6763 38.8504 29.8661 39.2734 29.9719C40.0275 30.1781 40.7645 30.4412 41.4782 30.7586C43.0531 31.5593 44.0093 32.7813 44.0093 34.5751C44.0093 36.4471 43.1881 37.8588 41.4782 38.7236C40.4704 39.213 39.3661 39.4759 38.2442 39.4936C36.8546 39.519 35.466 39.4068 34.0989 39.1588C33.8739 39.1253 33.8177 39.0416 33.8177 38.824C33.8374 38.3526 33.8261 37.8839 33.8261 37.418Z" fill="#6A6F73"/>
<path d="M58.9739 28.7221C57.9098 28.175 56.721 27.9107 55.5233 27.9549C54.4791 27.9308 53.468 28.3193 52.7125 29.0348C51.957 29.7502 51.519 30.7341 51.4947 31.77C51.4705 32.8059 51.8621 33.8089 52.5833 34.5583C53.3045 35.3078 54.2963 35.7424 55.3405 35.7664C56.5067 35.8559 57.6761 35.6404 58.7321 35.1415C58.7658 35.1149 58.8046 35.0953 58.8462 35.0838C58.8877 35.0723 58.9311 35.0691 58.9739 35.0745V38.1601C58.9739 38.997 58.9739 38.997 58.1302 39.184C56.0492 39.661 53.9906 39.6582 52.022 38.746C49.266 37.4682 47.8037 35.281 47.6631 32.2735C47.5337 29.6148 48.473 27.3941 50.6525 25.7732C52.188 24.6294 53.9597 24.1998 55.8608 24.25C56.8238 24.2782 57.7792 24.4282 58.7039 24.6964C58.8417 24.7354 58.9711 24.755 58.9711 24.9754C58.9683 26.2001 58.9739 27.4388 58.9739 28.7221Z" fill="#6A6F73"/>
<path d="M19.8576 28.7237C18.7937 28.1734 17.6031 27.9089 16.4042 27.9565C15.36 27.9343 14.3497 28.3245 13.5955 29.0412C12.8413 29.758 12.4051 30.7427 12.3827 31.7785C12.3603 32.8144 12.7537 33.8167 13.4762 34.5648C14.1987 35.313 15.1913 35.7458 16.2355 35.768C17.4697 35.8584 18.7053 35.6103 19.807 35.051C19.8942 35.1458 19.8548 35.2491 19.8548 35.33C19.8548 36.4459 19.8548 37.5312 19.8548 38.6303C19.8548 38.8619 19.807 38.9763 19.5539 39.046C17.3041 39.6375 15.0768 39.7295 12.917 38.7391C10.1048 37.4502 8.67617 35.2184 8.54961 32.1719C8.44556 29.7224 9.28361 27.6384 11.1875 26.0343C12.3897 25.0356 13.872 24.427 15.434 24.2906C16.8193 24.1546 18.2181 24.2843 19.5539 24.6728C19.7676 24.7314 19.8576 24.8095 19.8548 25.0522C19.8492 26.2826 19.8576 27.4682 19.8576 28.7237Z" fill="#6A6F73"/>
<path d="M25.0186 12.1652V21.7622C25.0186 22.7526 24.4393 23.5114 23.5562 23.6955C23.2874 23.754 23.0088 23.7528 22.7405 23.692C22.4721 23.6312 22.2207 23.5123 22.0041 23.3438C21.7875 23.1753 21.6111 22.9614 21.4876 22.7174C21.364 22.4734 21.2964 22.2053 21.2896 21.9324V2.53747C21.2896 1.79537 21.5342 1.1844 22.1895 0.788246C22.4676 0.606572 22.7919 0.506749 23.1249 0.50033C23.4578 0.493912 23.7858 0.581161 24.0709 0.751979C24.3732 0.913279 24.6236 1.1559 24.7932 1.452C24.9628 1.74809 25.0449 2.08563 25.0298 2.42588C25.0298 5.13759 25.0298 7.84837 25.0298 10.5582C25.0186 11.1022 25.0186 11.6351 25.0186 12.1652Z" fill="#6A6F73"/>
<path d="M62.1738 12.1237V2.45691C62.1738 1.4442 62.7616 0.713267 63.6924 0.548667C64.1738 0.459661 64.6711 0.563539 65.0754 0.837544C65.4797 1.11155 65.758 1.53335 65.8494 2.01054C65.8667 2.10265 65.877 2.1959 65.8804 2.28952V21.69C65.9023 22.1019 65.8047 22.5115 65.5991 22.8701C65.3865 23.2071 65.07 23.467 64.6966 23.6112C64.3232 23.7555 63.9128 23.7764 63.5265 23.6708C63.1335 23.5642 62.7875 23.3309 62.5431 23.0075C62.2987 22.6842 62.1697 22.2894 62.1766 21.8853C62.1766 19.2182 62.1766 16.5539 62.1766 13.8868C62.1738 13.301 62.1738 12.7123 62.1738 12.1237Z" fill="#6A6F73"/>
<path d="M28.7702 31.8629C28.7702 34.2064 28.7702 36.5498 28.7702 38.8933C28.7702 39.1723 28.6887 39.242 28.4159 39.2364C27.3753 39.2225 26.332 39.2364 25.2915 39.2364C25.0749 39.2364 25.0103 39.1862 25.0103 38.9574C25.0103 34.2333 25.0103 29.5111 25.0103 24.7907C25.0103 24.5591 25.0721 24.4922 25.3084 24.4922C26.3404 24.4922 27.3697 24.5089 28.4018 24.4922C28.683 24.4922 28.7758 24.5591 28.7758 24.8577C28.7646 27.2011 28.7702 29.5334 28.7702 31.8629Z" fill="#6A6F73"/>
<path d="M76.1002 13.7699C76.1002 15.2708 76.1002 16.7689 76.1002 18.2671C76.0984 18.7132 75.9339 19.1436 75.6371 19.4788C75.3402 19.8139 74.9312 20.0311 74.4854 20.0903C74.0397 20.1495 73.5874 20.0466 73.2122 19.8007C72.837 19.5548 72.5642 19.1825 72.4442 18.7525C72.3886 18.5716 72.3592 18.3837 72.3571 18.1945C72.3571 15.2392 72.3571 12.2848 72.3571 9.33126C72.3395 8.972 72.4334 8.61605 72.626 8.31129C72.8185 8.00654 73.1006 7.76762 73.4341 7.62667C73.7213 7.49298 74.038 7.43406 74.3545 7.45546C74.671 7.47687 74.9767 7.5779 75.243 7.74902C75.5092 7.92014 75.727 8.15572 75.876 8.43353C76.025 8.71133 76.1002 9.02221 76.0945 9.33684V13.7699H76.1002Z" fill="#6A6F73"/>
<path d="M11.0587 13.7471C11.0587 12.2713 11.0587 10.7927 11.0587 9.31683C11.0545 8.9166 11.1816 8.52587 11.4207 8.20348C11.6599 7.88109 11.9981 7.64449 12.3845 7.5293C12.7709 7.41411 13.1846 7.42658 13.5632 7.56481C13.9419 7.70304 14.265 7.95957 14.484 8.29576C14.686 8.60656 14.7916 8.96936 14.7877 9.33915C14.7877 12.2824 14.7877 15.2257 14.7877 18.1718C14.7847 18.6623 14.5854 19.1316 14.2336 19.4764C13.8819 19.8212 13.4064 20.0132 12.9119 20.0102C12.4174 20.0073 11.9444 19.8096 11.5968 19.4606C11.2492 19.1116 11.0557 18.64 11.0587 18.1494C11.053 16.682 11.0587 15.2145 11.0587 13.7471Z" fill="#6A6F73"/>
<path d="M31.4865 13.7644C31.4865 12.2858 31.4865 10.8072 31.4865 9.33137C31.481 8.97907 31.5771 8.63255 31.7634 8.33257C31.9497 8.03259 32.2185 7.79164 32.5381 7.63807C32.8578 7.4845 33.215 7.42469 33.5678 7.46569C33.9205 7.50669 34.2542 7.64679 34.5294 7.8695C34.7494 8.03531 34.9268 8.25039 35.047 8.49719C35.1672 8.74398 35.2269 9.01548 35.2212 9.28952C35.2212 12.2653 35.2212 15.2412 35.2212 18.217C35.2234 18.4588 35.1776 18.6987 35.0864 18.9229C34.9951 19.1471 34.8603 19.3514 34.6895 19.5239C34.5187 19.6964 34.3153 19.8339 34.091 19.9285C33.8666 20.023 33.6257 20.0728 33.382 20.075H33.3651C33.1142 20.0755 32.8658 20.026 32.6345 19.9295C32.4032 19.8331 32.1938 19.6915 32.0187 19.5134C31.8435 19.3352 31.7062 19.1239 31.6148 18.8922C31.5234 18.6604 31.4798 18.4128 31.4865 18.164C31.4865 16.6965 31.4865 15.2291 31.4865 13.7644Z" fill="#6A6F73"/>
<path d="M55.672 13.7822C55.672 15.2468 55.672 16.7143 55.672 18.179C55.6838 18.5251 55.5945 18.8672 55.4149 19.1642C55.2353 19.4612 54.973 19.7003 54.6595 19.8529C54.3686 20.0132 54.0375 20.0879 53.7053 20.0681C53.373 20.0484 53.0533 19.935 52.7838 19.7413C52.1707 19.3367 51.9401 18.7369 51.9401 18.0199C51.9401 15.5091 51.9401 12.9982 51.9401 10.4874C51.9401 10.0661 51.9232 9.65045 51.9401 9.2236C51.9554 8.736 52.1653 8.2744 52.5237 7.94034C52.8821 7.60628 53.3595 7.42713 53.851 7.4423C54.3425 7.45746 54.8079 7.66571 55.1446 8.02122C55.4813 8.37673 55.6619 8.85039 55.6466 9.33798C55.672 10.8278 55.672 12.3064 55.672 13.7822Z" fill="#6A6F73"/>
<path d="M0.833363 16.3007V14.4371C0.830594 14.1942 0.876077 13.9531 0.967219 13.7277C1.05836 13.5022 1.19338 13.2968 1.36455 13.1231C1.53573 12.9494 1.73972 12.8108 1.96487 12.7153C2.19003 12.6198 2.43194 12.5693 2.67679 12.5665C2.92164 12.5638 3.16464 12.6089 3.39191 12.6993C3.61919 12.7897 3.82628 12.9237 4.00138 13.0935C4.17647 13.2633 4.31614 13.4657 4.4124 13.689C4.50866 13.9124 4.55963 14.1524 4.5624 14.3953C4.58114 15.66 4.58114 16.9247 4.5624 18.1894C4.56687 18.4348 4.52215 18.6786 4.43084 18.9067C4.33953 19.1348 4.20345 19.3426 4.0305 19.518C3.85755 19.6935 3.65118 19.8331 3.42338 19.9288C3.19558 20.0245 2.95088 20.0743 2.7035 20.0754C2.45401 20.0732 2.20744 20.022 1.97803 19.9246C1.74863 19.8273 1.54096 19.6858 1.36704 19.5084C1.19312 19.3309 1.0564 19.121 0.964799 18.8908C0.873194 18.6605 0.82852 18.4146 0.833363 18.1671C0.833363 17.545 0.833363 16.9228 0.833363 16.3007Z" fill="#6A6F73"/>
<path d="M45.4354 16.3069C45.4354 16.9402 45.4495 17.5735 45.4354 18.204C45.4399 18.6466 45.2835 19.076 44.9948 19.4136C44.7061 19.7511 44.3045 19.9742 43.8636 20.042C43.4226 20.1098 42.9718 20.0177 42.5937 19.7826C42.2156 19.5475 41.9356 19.1852 41.8048 18.7619C41.745 18.559 41.7156 18.3484 41.7176 18.137C41.7176 16.8927 41.7176 15.6485 41.7176 14.4042C41.7096 13.9897 41.8427 13.5846 42.0956 13.2545C42.3485 12.9244 42.7062 12.6887 43.111 12.5854C43.5157 12.4821 43.9437 12.5174 44.3258 12.6854C44.7078 12.8535 45.0215 13.1445 45.2161 13.5115C45.3683 13.8094 45.4436 14.1401 45.4354 14.474C45.4382 15.0849 45.4354 15.6959 45.4354 16.3069Z" fill="#6A6F73"/>
<path d="M86.3258 16.3128C86.3258 16.9572 86.3427 17.6017 86.3258 18.2461C86.3392 18.7013 86.1818 19.1451 85.8843 19.4917C85.5867 19.8384 85.17 20.0631 84.715 20.1225C84.26 20.1819 83.7989 20.0717 83.4211 19.8132C83.0433 19.5547 82.7756 19.1663 82.6699 18.7232C82.6168 18.5192 82.5912 18.309 82.5939 18.0983C82.5939 16.8987 82.5939 15.6962 82.5939 14.4966C82.5939 13.4504 83.2183 12.6972 84.1632 12.5437C84.4285 12.5004 84.7002 12.5154 84.9591 12.5877C85.218 12.66 85.4577 12.7878 85.6613 12.9621C85.8649 13.1364 86.0274 13.3529 86.1374 13.5964C86.2473 13.8399 86.3021 14.1043 86.2977 14.3711C86.3258 15.0239 86.3258 15.6795 86.3258 16.3128Z" fill="#6A6F73"/>
</svg>
