<svg width="101" height="34" viewBox="0 0 101 34" fill="none" xmlns="http://www.w3.org/2000/svg">
<g clip-path="url(#clip0_2067_50638)">
<path d="M100.603 8.35689C101.972 16.1158 80.6138 26.277 52.8924 31.0518C25.1743 35.8266 1.59438 33.4037 0.227526 25.6415C-1.13823 17.8814 20.2258 7.72359 47.9439 2.94985C75.663 -1.82716 99.2386 0.595742 100.603 8.35689Z" fill="#6A6F73"/>
<path d="M74.5153 19.8746L74.3728 11.8066H76.9454V21.9754H73.2467L70.6797 13.6301H70.6245L70.7669 21.9754H68.2109V11.8066H72.0697L74.4579 19.8746H74.5153Z" fill="white"/>
<path d="M27.7535 12.7588L26.3304 22.0824H23.5249L25.4515 11.8066H30.0732L31.991 22.0824H29.1966L27.8121 12.7588H27.7535Z" fill="white"/>
<path d="M38.5251 22.0824L36.7873 12.8439H36.7309L36.6658 22.0824H34.0635L34.2931 11.8066H38.5328L39.8158 19.6617H39.871L41.155 11.8066H45.3925L45.6177 22.0824H43.0209L42.9525 12.8439H42.8984L41.1616 22.0824H38.5251Z" fill="white"/>
<path d="M19.1496 19.1837C19.2511 19.4327 19.2202 19.7526 19.1727 19.9459C19.0855 20.2876 18.8515 20.636 18.1603 20.636C17.5089 20.636 17.1136 20.2669 17.1136 19.7024V18.7077H14.3269L14.3247 19.5037C14.3247 21.7944 16.1487 22.4856 18.1029 22.4856C19.982 22.4856 21.53 21.8501 21.7762 20.1381C21.902 19.2503 21.8082 18.6695 21.7651 18.45C21.3268 16.299 17.383 15.6569 17.0893 14.4537C17.0397 14.2473 17.054 14.0289 17.0783 13.9121C17.1501 13.5845 17.3775 13.2231 18.0278 13.2231C18.6351 13.2231 18.9939 13.5944 18.9939 14.1556C18.9939 14.3445 18.9939 14.79 18.9939 14.79H21.5852V14.0682C21.5852 11.8299 19.5537 11.4805 18.0819 11.4805C16.2337 11.4805 14.7233 12.0843 14.4473 13.7571C14.3722 14.2189 14.3611 14.6306 14.4704 15.1459C14.9242 17.2456 18.6152 17.8538 19.1496 19.1837Z" fill="white"/>
<path d="M52.9367 19.165C53.0394 19.4118 53.0063 19.723 52.9599 19.9163C52.8749 20.2569 52.643 20.5998 51.9563 20.5998C51.3137 20.5998 50.9217 20.2307 50.9217 19.6793L50.9195 18.6933H48.1615L48.1582 19.4784C48.1582 21.7463 49.9656 22.4309 51.8999 22.4309C53.7592 22.4309 55.2928 21.8041 55.5346 20.1073C55.6605 19.2262 55.571 18.6529 55.5258 18.4378C55.0896 16.3065 51.1856 15.671 50.8952 14.4797C50.8455 14.2745 50.8599 14.0583 50.8853 13.948C50.9593 13.6182 51.1823 13.2656 51.826 13.2656C52.4277 13.2656 52.7788 13.6281 52.7788 14.1849C52.7788 14.3717 52.7788 14.8128 52.7788 14.8128H55.3502V14.0987C55.3502 11.8843 53.3353 11.5371 51.8779 11.5371C50.0506 11.5371 48.5524 12.1333 48.2819 13.794C48.2068 14.2494 48.1991 14.6534 48.3061 15.1665C48.7533 17.2444 52.4078 17.8482 52.9367 19.165Z" fill="white"/>
<path d="M61.6644 20.5455C62.3854 20.5455 62.6106 20.052 62.6603 19.7997C62.6813 19.6884 62.6868 19.5399 62.6846 19.4066V11.8027H65.3123V19.1741C65.3178 19.363 65.2991 19.7517 65.2902 19.8489C65.1058 21.7673 63.5723 22.3897 61.6633 22.3897C59.7521 22.3897 58.2175 21.7673 58.0353 19.8489C58.0264 19.7517 58.0077 19.363 58.0132 19.1741V11.8027H60.6387V19.4066C60.6387 19.5399 60.6431 19.6894 60.663 19.7997C60.7193 20.052 60.9379 20.5455 61.6644 20.5455Z" fill="white"/>
<path d="M83.3398 20.4374C84.0928 20.4374 84.3556 19.9668 84.4042 19.6927C84.423 19.5748 84.4285 19.4318 84.4274 19.3018V17.8103H83.3608V16.31H87.0452V19.0682C87.0429 19.2603 87.0385 19.4023 87.0076 19.7451C86.8343 21.6144 85.1947 22.2816 83.3531 22.2816C81.5082 22.2816 79.8708 21.6144 79.6953 19.7451C79.6654 19.4023 79.661 19.2603 79.6577 19.0682L79.6599 14.741C79.6599 14.5587 79.6831 14.2355 79.703 14.064C79.9337 12.1434 81.5082 11.5254 83.3531 11.5254C85.1958 11.5254 86.8089 12.1401 86.9999 14.064C87.0341 14.3916 87.0231 14.741 87.0231 14.741V15.0839H84.4031V14.5084C84.4053 14.5095 84.3998 14.2638 84.3688 14.1175C84.3247 13.8904 84.1248 13.3685 83.3332 13.3685C82.5758 13.3685 82.3539 13.862 82.2987 14.1175C82.2667 14.2529 82.2545 14.4364 82.2545 14.6023V19.3018C82.2523 19.4318 82.26 19.5748 82.281 19.6927C82.3263 19.9679 82.588 20.4374 83.3398 20.4374Z" fill="white"/>
</g>
<defs>
<clipPath id="clip0_2067_50638">
<rect width="100.5" height="33" fill="white" transform="translate(0.166016 0.5)"/>
</clipPath>
</defs>
</svg>
